<svg xmlns="http://www.w3.org/2000/svg" width="147" height="47" viewBox="0 0 147 47">
  <rect width="147" height="47" rx="8" fill="#2D2D2D"/>
  <!-- GitHub Octocat Logo -->
  <g transform="translate(20, 23.5) scale(0.45)">
    <path fill="#E5D5D3" d="M0-24C-13.25-24-24-13.25-24 0c0 10.6 6.88 19.6 16.41 22.77 1.2.22 1.64-.52 1.64-1.16 0-.57-.02-2.08-.03-4.09-6.68 1.45-8.08-3.22-8.08-3.22-1.09-2.77-2.66-3.5-2.66-3.5-2.18-1.49.16-1.46.16-1.46 2.41.17 3.67 2.47 3.67 2.47 2.14 3.67 5.62 2.61 6.98 1.99.22-1.55.84-2.61 1.52-3.21-5.33-.61-10.93-2.67-10.93-11.87 0-2.62.94-4.76 2.47-6.44-.25-.61-1.07-3.05.23-6.35 0 0 2.01-.65 6.6 2.46 1.91-.53 3.97-.8 6.01-.81 2.04.01 4.1.28 6.01.81 4.59-3.11 6.6-2.46 6.6-2.46 1.3 3.3.48 5.74.24 6.35 1.54 1.68 2.47 3.82 2.47 6.44 0 9.22-5.61 11.25-10.96 11.85.86.74 1.63 2.21 1.63 4.45 0 3.21-.03 5.8-.03 6.59 0 .64.43 1.39 1.65 1.16C17.14 19.59 24 10.59 24 0 24-13.25 13.25-24 0-24z"/>
  </g>
  <!-- Star icon -->
  <polygon points="44,17 46,21.2 50.6,21.8 47.3,25 48.1,29.6 44,27.4 39.9,29.6 40.7,25 37.4,21.8 42,21.2" fill="#E5D5D3"/>
  <!-- "Star on GitHub" text -->
  <text x="99" y="27.5" fill="#E5D5D3" font-family="Arial, Helvetica, sans-serif" font-size="11" font-weight="600" text-anchor="middle">Star on GitHub</text>
</svg>



